<?xml version="1.0" encoding="utf-8"?>
<!-- Generator: Adobe Illustrator 23.1.0, SVG Export Plug-In . SVG Version: 6.00 Build 0)  -->
<svg version="1.1" id="Layer_1" xmlns="http://www.w3.org/2000/svg" xmlns:xlink="http://www.w3.org/1999/xlink" x="0px" y="0px"
	 viewBox="0 0 290.47 290.59" style="enable-background:new 0 0 290.47 290.59;" xml:space="preserve">
<style type="text/css">
	.st0{fill:#ED1F24;}
</style>
<g>
	<g>
		<path class="st0" d="M69.15,21.51C103.37,0.17,146.67-5.64,185.36,5.66c34.89,9.85,65.54,33.51,84.17,64.58
			c14.44,23.67,21.62,51.62,20.89,79.3c-0.83,21.26-5.93,42.44-15.68,61.4c-15.56,30.98-42.68,55.88-74.78,68.92
			c-16.11,6.75-33.62,9.25-50.94,10.33c-7.23,1.03-14.48-0.45-21.73,0.4c2.01-0.26,6.03-0.77,8.04-1.02l-6.97-1.16
			c11.13,2.02,22.47,0.12,33.4-2.25c35.71-8.18,67.07-32.99,83.39-65.76c16.11-31.65,17.82-70.26,4.42-103.16
			c-3.02-7.69-6.94-14.99-11.31-21.98c9.41,18.5,14.13,39.59,11.78,60.32c-2.81,32.49-22.01,62.93-49.92,79.73
			c-16.37,10.1-35.58,15.44-54.8,15.48c-22.35,0.01-44.67-7.19-62.63-20.54c-25.78-18.78-42.12-49.79-42.85-81.7
			c-0.57-18.87,3.92-37.91,13.14-54.41c10.43-18.9,26.87-34.38,46.29-43.77c11.47-5.29,23.85-9.63,36.63-9.48
			c-29.51,2.65-56.52,21.72-70.19,47.82c-9.96,18.74-13.09,41.06-8.48,61.8c5.19,24.67,21.28,46.73,43.04,59.42
			c-12.31-9.06-22.46-21.24-28.04-35.55c-6.82-16.96-7.39-36.34-1.65-53.69c5.92-18.25,18.89-34.06,35.56-43.53
			c13.31-7.69,28.93-11.27,44.26-10.2c18.4,1.15,36.31,9.05,49.46,22c13.46,12.96,21.98,30.92,23.51,49.54
			c1.6,18.27-3.43,37.08-14.06,52.05c-8,11.19-18.83,20.66-31.6,25.96c9.45-2.65,17.88-8.16,25.59-14.09
			c14.68-11.74,25.63-28.05,30.75-46.15c4.84-16.89,4.68-35.18-0.59-51.95c-5.55-17.86-16.64-34.08-31.63-45.31
			C168.59,36.68,124.3,32.23,87.18,47.15c-30.48,11.9-55.83,36.27-68.91,66.27c-10.26,23.27-13.17,49.71-8.25,74.67
			c2.12,11.39,6.22,22.29,11.21,32.71C0.05,186.87-5.47,143.9,5.5,105.52C15.18,70.85,38.42,40.24,69.15,21.51z M141.36,89.42
			c-22.15,0.88-43.37,13.47-54.64,32.56c-7.96,13.26-11.25,29.33-8.81,44.62c2.63,17.79,12.83,34.29,27.53,44.62
			c10.53,7.9,24.04,10.38,36.9,11.07c8.93,0.15,18.22,0.16,26.57-3.44c16.66-6.55,30.42-20.11,37.2-36.68
			c5.22-12.46,6.42-26.53,3.64-39.73c-3.32-15.51-12.32-29.76-24.98-39.33C172.49,93.65,156.82,88.83,141.36,89.42z"/>
	</g>
	<path class="st0" d="M136.84,103.38c8.38-1.42,17.26-0.86,25.1,2.6c13.37,5.56,23.31,18.39,25.44,32.7
		c3.38,19.19-8.37,39.63-26.64,46.38c-11.93,4.78-26.02,3.67-37.08-2.87c-11.65-6.68-19.76-19.18-20.95-32.57
		c-1.07-10.4,1.73-21.19,8-29.58C116.89,111.44,126.48,105.42,136.84,103.38z"/>
</g>
</svg>
